<svg xmlns="http://www.w3.org/2000/svg" viewBox="0 0 800 450" font-family="'DM Sans',system-ui,sans-serif">
  <defs>
    <linearGradient id="bg" x1="0" y1="0" x2="1" y2="1">
      <stop offset="0%" stop-color="#020405"/>
      <stop offset="100%" stop-color="#0d0608"/>
    </linearGradient>
    <radialGradient id="glow1" cx="25%" cy="25%" r="45%">
      <stop offset="0%" stop-color="#fb7185" stop-opacity="0.14"/>
      <stop offset="100%" stop-color="#fb7185" stop-opacity="0"/>
    </radialGradient>
    <filter id="shadow" x="-20%" y="-20%" width="140%" height="140%">
      <feDropShadow dx="0" dy="8" stdDeviation="14" flood-color="#000" flood-opacity="0.7"/>
    </filter>
    <pattern id="grid" width="52" height="52" patternUnits="userSpaceOnUse">
      <path d="M 52 0 L 0 0 0 52" fill="none" stroke="rgba(255,255,255,0.018)" stroke-width="1"/>
    </pattern>
  </defs>
  <rect width="800" height="450" fill="url(#bg)"/>
  <rect width="800" height="450" fill="url(#glow1)"/>
  <rect width="800" height="450" fill="url(#grid)"/>

  <!-- Mod log embed window -->
  <g filter="url(#shadow)">
    <!-- Main channel window -->
    <rect x="150" y="50" width="500" height="350" rx="12" fill="#313338"/>
    <rect x="150" y="50" width="500" height="350" rx="12" fill="none" stroke="rgba(255,255,255,0.07)" stroke-width="1"/>

    <!-- Header bar -->
    <rect x="150" y="50" width="500" height="44" rx="12" fill="#2b2d31"/>
    <rect x="150" y="82" width="500" height="12" fill="#2b2d31"/>
    <text x="190" y="77" fill="#f2f3f5" font-size="12" font-weight="700"># mod-log</text>
    <text x="350" y="77" fill="rgba(148,155,164,0.5)" font-size="11">Private • Moderators only</text>

    <!-- Case 001 - Ban embed -->
    <rect x="170" y="112" width="460" height="88" rx="6" fill="rgba(0,0,0,0.15)"/>
    <!-- Bot avatar -->
    <circle cx="192" cy="126" r="14" fill="#38bdf8" opacity="0.2"/>
    <text x="192" y="130" text-anchor="middle" fill="#38bdf8" font-size="9" font-weight="800">CH</text>
    <!-- Message -->
    <text x="214" y="126" fill="#38bdf8" font-size="12" font-weight="700">Chopsticks</text>
    <rect x="256" y="117" width="26" height="12" rx="2" fill="#5865f2"/>
    <text x="269" y="127" text-anchor="middle" fill="#fff" font-size="8" font-weight="700">APP</text>
    <text x="296" y="126" fill="rgba(148,155,164,0.5)" font-size="10">Today 2:14 PM</text>

    <!-- Ban embed -->
    <rect x="214" y="135" width="400" height="58" rx="4" fill="#2b2d31"/>
    <rect x="214" y="135" width="4" height="58" rx="2" fill="#ef4444"/>
    <text x="228" y="153" fill="#f2f3f5" font-size="12" font-weight="700">🔨 Member Banned — Case #0042</text>
    <text x="228" y="168" fill="#b5bac1" font-size="11">User: SpamBot#1234 · Mod: Alex#0001</text>
    <text x="228" y="183" fill="#b5bac1" font-size="11">Reason: Repeated spam &amp; mentions abuse</text>

    <!-- Divider -->
    <line x1="170" y1="208" x2="610" y2="208" stroke="rgba(255,255,255,0.05)" stroke-width="1"/>

    <!-- Case 002 - Warn embed -->
    <rect x="170" y="218" width="460" height="88" rx="6" fill="rgba(0,0,0,0.1)"/>
    <circle cx="192" cy="232" r="14" fill="#38bdf8" opacity="0.2"/>
    <text x="192" y="236" text-anchor="middle" fill="#38bdf8" font-size="9" font-weight="800">CH</text>
    <text x="214" y="232" fill="#38bdf8" font-size="12" font-weight="700">Chopsticks</text>
    <rect x="256" y="223" width="26" height="12" rx="2" fill="#5865f2"/>
    <text x="269" y="233" text-anchor="middle" fill="#fff" font-size="8" font-weight="700">APP</text>

    <rect x="214" y="241" width="400" height="58" rx="4" fill="#2b2d31"/>
    <rect x="214" y="241" width="4" height="58" rx="2" fill="#fbbf24"/>
    <text x="228" y="259" fill="#f2f3f5" font-size="12" font-weight="700">⚠️ Warning Issued — Case #0043</text>
    <text x="228" y="274" fill="#b5bac1" font-size="11">User: ToxicUser#9999 · Mod: Maya#5678</text>
    <text x="228" y="289" fill="#b5bac1" font-size="11">Reason: Inappropriate language in #general</text>

    <!-- Command input preview -->
    <rect x="170" y="320" width="460" height="66" rx="6" fill="rgba(0,0,0,0.3)"/>
    <rect x="182" y="332" width="436" height="38" rx="6" fill="#383a40"/>
    <text x="198" y="357" fill="rgba(148,155,164,0.6)" font-size="12">/mod ban @SpamBot#1234 reason:Spam abuse</text>
    <circle cx="593" cy="351" r="10" fill="rgba(74,222,128,0.15)"/>
    <text x="593" y="355" text-anchor="middle" fill="#4ade80" font-size="11">↵</text>
  </g>

  <!-- Stats sidebar -->
  <rect x="38" y="120" width="96" height="160" rx="8" fill="#0a0d10" stroke="rgba(251,113,133,0.2)" stroke-width="1"/>
  <text x="86" y="142" text-anchor="middle" fill="rgba(148,155,164,0.6)" font-size="9" font-weight="700" letter-spacing="1">TODAY</text>
  <text x="86" y="167" text-anchor="middle" fill="#fb7185" font-size="22" font-weight="700">3</text>
  <text x="86" y="182" text-anchor="middle" fill="#7e8a98" font-size="10">actions</text>
  <line x1="50" y1="196" x2="122" y2="196" stroke="rgba(255,255,255,0.06)" stroke-width="1"/>
  <text x="86" y="214" text-anchor="middle" fill="#fbbf24" font-size="14" font-weight="700">1</text>
  <text x="86" y="228" text-anchor="middle" fill="#7e8a98" font-size="10">ban</text>
  <text x="86" y="246" text-anchor="middle" fill="#fbbf24" font-size="14" font-weight="700">2</text>
  <text x="86" y="260" text-anchor="middle" fill="#7e8a98" font-size="10">warns</text>

  <text x="400" y="428" text-anchor="middle" fill="rgba(251,113,133,0.5)" font-size="11" font-weight="600" letter-spacing="2">MODERATION SETUP · BEGINNER</text>
</svg>
