<svg xmlns="http://www.w3.org/2000/svg" viewBox="0 0 800 450" font-family="'DM Sans',system-ui,sans-serif">
  <defs>
    <linearGradient id="bg" x1="0" y1="0" x2="1" y2="1">
      <stop offset="0%" stop-color="#020405"/>
      <stop offset="100%" stop-color="#030d07"/>
    </linearGradient>
    <radialGradient id="glow1" cx="30%" cy="40%" r="50%">
      <stop offset="0%" stop-color="#4ade80" stop-opacity="0.13"/>
      <stop offset="100%" stop-color="#4ade80" stop-opacity="0"/>
    </radialGradient>
    <filter id="shadow" x="-20%" y="-20%" width="140%" height="140%">
      <feDropShadow dx="0" dy="8" stdDeviation="14" flood-color="#000" flood-opacity="0.7"/>
    </filter>
    <pattern id="grid" width="52" height="52" patternUnits="userSpaceOnUse">
      <path d="M 52 0 L 0 0 0 52" fill="none" stroke="rgba(255,255,255,0.018)" stroke-width="1"/>
    </pattern>
  </defs>
  <rect width="800" height="450" fill="url(#bg)"/>
  <rect width="800" height="450" fill="url(#glow1)"/>
  <rect width="800" height="450" fill="url(#grid)"/>

  <!-- Balance card -->
  <g filter="url(#shadow)">
    <rect x="100" y="60" width="280" height="200" rx="12" fill="#0a0d10" stroke="rgba(74,222,128,0.2)" stroke-width="1"/>
    <text x="120" y="88" fill="rgba(148,155,164,0.6)" font-size="11" font-weight="700" letter-spacing="1">BALANCE</text>
    <text x="120" y="115" fill="#f2f3f5" font-size="26" font-weight="700">Maya#5678</text>
    <line x1="120" y1="128" x2="360" y2="128" stroke="rgba(255,255,255,0.06)" stroke-width="1"/>

    <text x="120" y="152" fill="rgba(148,155,164,0.6)" font-size="10" font-weight="700" letter-spacing="1">WALLET</text>
    <text x="120" y="174" fill="#4ade80" font-size="22" font-weight="700">4,250 cr</text>

    <text x="240" y="152" fill="rgba(148,155,164,0.6)" font-size="10" font-weight="700" letter-spacing="1">BANK</text>
    <text x="240" y="174" fill="#38bdf8" font-size="22" font-weight="700">12,800 cr</text>

    <line x1="120" y1="190" x2="360" y2="190" stroke="rgba(255,255,255,0.06)" stroke-width="1"/>

    <text x="120" y="212" fill="rgba(148,155,164,0.6)" font-size="10">Total</text>
    <text x="200" y="212" fill="#f2f3f5" font-size="14" font-weight="700">17,050 cr</text>
    <text x="290" y="212" fill="#a78bfa" font-size="11" font-weight="700">#3 Server</text>
    <text x="120" y="232" fill="rgba(148,155,164,0.6)" font-size="10">Streak</text>
    <text x="200" y="232" fill="#fbbf24" font-size="13" font-weight="700">🔥 12 days</text>
  </g>

  <!-- Shop panel -->
  <g filter="url(#shadow)">
    <rect x="410" y="60" width="280" height="200" rx="12" fill="#0a0d10" stroke="rgba(56,189,248,0.2)" stroke-width="1"/>
    <text x="430" y="88" fill="rgba(148,155,164,0.6)" font-size="11" font-weight="700" letter-spacing="1">SHOP</text>

    <!-- Shop items -->
    <rect x="430" y="98" width="240" height="42" rx="6" fill="rgba(255,255,255,0.03)"/>
    <rect x="430" y="98" width="4" height="42" rx="2" fill="#38bdf8"/>
    <text x="445" y="116" fill="#f2f3f5" font-size="12" font-weight="700">VIP Role</text>
    <text x="445" y="131" fill="#7e8a98" font-size="11">Exclusive channel access</text>
    <text x="630" y="123" text-anchor="end" fill="#38bdf8" font-size="12" font-weight="700">2,000 cr</text>

    <rect x="430" y="148" width="240" height="42" rx="6" fill="rgba(255,255,255,0.03)"/>
    <rect x="430" y="148" width="4" height="42" rx="2" fill="#a78bfa"/>
    <text x="445" y="166" fill="#f2f3f5" font-size="12" font-weight="700">Color Role</text>
    <text x="445" y="181" fill="#7e8a98" font-size="11">Custom name color</text>
    <text x="630" y="173" text-anchor="end" fill="#a78bfa" font-size="12" font-weight="700">500 cr</text>

    <rect x="430" y="198" width="240" height="42" rx="6" fill="rgba(255,255,255,0.03)"/>
    <rect x="430" y="198" width="4" height="42" rx="2" fill="#4ade80"/>
    <text x="445" y="216" fill="#f2f3f5" font-size="12" font-weight="700">XP Booster</text>
    <text x="445" y="231" fill="#7e8a98" font-size="11">2× XP for 24 hours</text>
    <text x="630" y="223" text-anchor="end" fill="#4ade80" font-size="12" font-weight="700">1,200 cr</text>
  </g>

  <!-- Leaderboard -->
  <g filter="url(#shadow)">
    <rect x="100" y="282" width="590" height="128" rx="12" fill="#0a0d10" stroke="rgba(74,222,128,0.15)" stroke-width="1"/>
    <text x="120" y="306" fill="rgba(148,155,164,0.6)" font-size="11" font-weight="700" letter-spacing="1">ECONOMY LEADERBOARD</text>

    <!-- Row 1 -->
    <text x="130" y="328" fill="#fbbf24" font-size="13" font-weight="700">#1</text>
    <circle cx="165" cy="323" r="10" fill="#5865f2"/>
    <text x="165" y="327" text-anchor="middle" fill="#fff" font-size="9" font-weight="700">J</text>
    <text x="182" y="328" fill="#f2f3f5" font-size="13">Jordan#2200</text>
    <text x="500" y="328" fill="#4ade80" font-size="13" font-weight="700">89,400 cr</text>
    <text x="622" y="328" fill="#a78bfa" font-size="11">Lv. 42</text>

    <!-- Row 2 -->
    <text x="130" y="352" fill="#94a3b8" font-size="13" font-weight="700">#2</text>
    <circle cx="165" cy="347" r="10" fill="#ed4245"/>
    <text x="165" y="351" text-anchor="middle" fill="#fff" font-size="9" font-weight="700">K</text>
    <text x="182" y="352" fill="#f2f3f5" font-size="13">Kayla#7734</text>
    <text x="500" y="352" fill="#4ade80" font-size="13" font-weight="700">62,100 cr</text>
    <text x="622" y="352" fill="#a78bfa" font-size="11">Lv. 38</text>

    <!-- Row 3 (you) -->
    <rect x="120" y="359" width="550" height="26" rx="5" fill="rgba(74,222,128,0.05)" stroke="rgba(74,222,128,0.15)" stroke-width="1"/>
    <text x="130" y="376" fill="#4ade80" font-size="13" font-weight="700">#3</text>
    <circle cx="165" cy="371" r="10" fill="#38bdf8"/>
    <text x="165" y="375" text-anchor="middle" fill="#000" font-size="9" font-weight="800">M</text>
    <text x="182" y="376" fill="#4ade80" font-size="13" font-weight="600">Maya#5678 (you)</text>
    <text x="500" y="376" fill="#4ade80" font-size="13" font-weight="700">17,050 cr</text>
    <text x="622" y="376" fill="#a78bfa" font-size="11">Lv. 18</text>
  </g>

  <text x="400" y="432" text-anchor="middle" fill="rgba(74,222,128,0.5)" font-size="11" font-weight="600" letter-spacing="2">ECONOMY SETUP · BEGINNER</text>
</svg>
